<svg width="48" height="33" viewBox="0 0 48 33" fill="none" xmlns="http://www.w3.org/2000/svg">
<path d="M20.7309 4.15005C21.0252 4.01347 21.3541 3.96931 21.674 4.02338C21.994 4.07745 22.29 4.22723 22.5231 4.45295L25.8114 7.97005L15.6059 16.9743C16.5613 17.1643 17.2367 17.4784 17.8191 17.7501C18.5971 18.1132 19.2116 18.4001 20.5708 18.4001C21.93 18.4001 22.5446 18.1133 23.3227 17.7501L23.3381 17.7429C24.8411 17.0423 26.2359 16.1296 27.4798 15.0329L30.1846 12.6463L35.4746 18.3036C36.0925 18.1899 36.5307 17.9866 37.037 17.7504C37.5796 17.4819 38.1455 17.2632 38.7277 17.0971L24.8389 2.24446L24.8016 2.20596C24.1037 1.51116 23.2096 1.04705 22.2397 0.876201C21.2699 0.70535 20.271 0.835973 19.3777 1.25046L12.9235 4.26245L14.2767 7.16245L20.7309 4.15005Z" fill="#669CEC"/>
<path d="M35.5999 7.19999C37.5881 7.19999 39.1999 5.58821 39.1999 3.59999C39.1999 1.61177 37.5881 0 35.5999 0C33.6116 0 31.9999 1.61177 31.9999 3.59999C31.9999 5.58821 33.6116 7.19999 35.5999 7.19999Z" fill="#669CEC"/>
<path d="M41.1424 27.9999C39.0731 27.9999 37.9441 28.5267 37.0371 28.9499C36.2589 29.313 35.6443 29.5999 34.2848 29.5999C32.9253 29.5999 32.3109 29.3131 31.5328 28.9499C30.6257 28.5267 29.4969 27.9999 27.4276 27.9999C25.3583 27.9999 24.2295 28.5268 23.3226 28.9499C22.5445 29.313 21.93 29.5999 20.5707 29.5999C19.2114 29.5999 18.597 29.3131 17.819 28.9499C16.912 28.5267 15.7832 27.9999 13.714 27.9999C11.6448 27.9999 10.5159 28.5268 9.60888 28.9499C8.83078 29.313 8.21628 29.5999 6.85699 29.5999C5.49769 29.5999 4.88319 29.3131 4.10509 28.9499C3.19809 28.5268 2.0692 27.9999 0 27.9999V31.1999C1.3593 31.1999 1.9738 31.4867 2.75189 31.8499C3.65889 32.2731 4.78779 32.7999 6.85699 32.7999C8.92618 32.7999 10.0551 32.273 10.9621 31.8499C11.7402 31.4868 12.3547 31.1999 13.714 31.1999C15.0733 31.1999 15.6877 31.4867 16.4657 31.8499C17.3727 32.2731 18.5015 32.7999 20.5707 32.7999C22.6399 32.7999 23.7688 32.273 24.6757 31.8499C25.4538 31.4868 26.0684 31.1999 27.4276 31.1999C28.7868 31.1999 29.4015 31.4867 30.1796 31.8499C31.0867 32.2731 32.2155 32.7999 34.2848 32.7999C36.3541 32.7999 37.4831 32.2731 38.3902 31.8499C39.1683 31.4868 39.783 31.1999 41.1424 31.1999C42.5018 31.1999 43.1165 31.4867 43.8945 31.8499C44.8017 32.2732 45.9306 32.7999 47.9999 32.7999V29.5999C46.6405 29.5999 46.0258 29.3131 45.2478 28.9499C44.3406 28.5267 43.2117 27.9999 41.1424 27.9999V27.9999Z" fill="#669CEC"/>
<path d="M47.7298 21.5956C46.5557 21.5597 45.9722 21.2881 45.2478 20.95C44.3812 20.5456 43.3102 20.048 41.4125 20.0042C41.3236 20.0022 41.235 19.9999 41.1425 19.9999C41.05 19.9999 40.9613 20.0022 40.8725 20.0042C38.9748 20.048 37.9037 20.5456 37.0373 20.95C36.3127 21.2881 35.7293 21.56 34.5551 21.5956C34.4682 21.5982 34.3787 21.5999 34.2851 21.5999C34.1915 21.5999 34.1019 21.5982 34.0151 21.5956C32.841 21.5597 32.2576 21.2881 31.5332 20.95C30.6667 20.5457 29.5957 20.0481 27.6981 20.0042C27.6092 20.0022 27.5207 19.9999 27.4281 19.9999C27.3355 19.9999 27.247 20.0022 27.1581 20.0042C25.2605 20.048 24.1894 20.5457 23.3231 20.95C22.5987 21.2881 22.0153 21.56 20.8413 21.5956C20.7544 21.5982 20.6649 21.5999 20.5713 21.5999C20.4777 21.5999 20.3882 21.5982 20.3013 21.5956C19.1274 21.5597 18.544 21.2881 17.8197 20.95C16.9533 20.5457 15.8823 20.048 13.9848 20.0042C13.9198 20.0024 13.8548 20.0013 13.7898 20.0009C13.7643 20.0009 13.7398 19.9997 13.7145 19.9997C13.6219 19.9997 13.5333 20.002 13.4445 20.004C11.547 20.0478 10.4759 20.5455 9.60948 20.9498C8.88498 21.2879 8.30168 21.5598 7.12769 21.5954C7.04079 21.598 6.95129 21.5997 6.85769 21.5997C6.76409 21.5997 6.67459 21.598 6.58769 21.5954C5.41289 21.5599 4.82989 21.2881 4.10499 20.9499C3.23859 20.5456 2.1676 20.0479 0.27 20.0041C0.1811 20.0021 0.0924998 19.9998 0 19.9998V23.1998C1.3593 23.1998 1.9738 23.4866 2.75189 23.8498C3.65889 24.273 4.78779 24.7998 6.85699 24.7998C8.92618 24.7998 10.0551 24.2729 10.9621 23.8498C11.7402 23.4867 12.3547 23.1998 13.714 23.1998C15.0733 23.1998 15.6877 23.4866 16.4657 23.8498C17.3727 24.273 18.5015 24.7998 20.5707 24.7998C22.6399 24.7998 23.7688 24.2729 24.6757 23.8498C25.4538 23.4867 26.0684 23.1998 27.4276 23.1998C28.7868 23.1998 29.4015 23.4866 30.1796 23.8498C31.0867 24.273 32.2155 24.7998 34.2848 24.7998C36.3541 24.7998 37.4831 24.273 38.3902 23.8498C39.1683 23.4867 39.783 23.1998 41.1424 23.1998C42.5018 23.1998 43.1165 23.4866 43.8945 23.8498C44.8017 24.2731 45.9306 24.7998 47.9999 24.7998V21.5999C47.9061 21.5999 47.8166 21.5982 47.7298 21.5956V21.5956Z" fill="#669CEC"/>
</svg>
