<svg width="1440" height="111" viewBox="0 0 1440 111" fill="none" xmlns="http://www.w3.org/2000/svg">
<path fill-rule="evenodd" clip-rule="evenodd" d="M0 44.4L48.4667 53.28C96.9333 62.16 193.867 79.92 290.8 75.48C387.733 71.04 484.667 44.4 581.6 26.64C678.533 8.88 775.467 0 872.4 0C969.333 0 1066.27 8.88 1163.2 24.42C1260.13 39.96 1357.07 62.16 1405.53 73.26L1454 84.36V111H1405.53C1357.07 111 1260.13 111 1163.2 111C1066.27 111 969.333 111 872.4 111C775.467 111 678.533 111 581.6 111C484.667 111 387.733 111 290.8 111C193.867 111 96.9333 111 48.4667 111H0V44.4Z" fill="#5445AD" fill-opacity="0.8"/>
</svg>
