<svg width="1440" height="111" viewBox="0 0 1440 111" fill="none" xmlns="http://www.w3.org/2000/svg">
<path fill-rule="evenodd" clip-rule="evenodd" d="M0 0L60.2047 4.17052C121.545 8.34104 241.955 16.6821 363.5 30.7977C485.045 45.2341 605.455 65.7659 727 69.9364C848.545 74.1069 968.955 61.5954 1090.5 57.7457C1212.05 53.5751 1332.45 57.7457 1393.8 59.6705L1454 61.5954V111H1393.8C1332.45 111 1212.05 111 1090.5 111C968.955 111 848.545 111 727 111C605.455 111 485.045 111 363.5 111C241.955 111 121.545 111 60.2047 111H0V0Z" fill="#7D55F0" fill-opacity="0.8"/>
</svg>
